<svg width="1047" height="394" viewBox="0 0 1047 394" fill="none" xmlns="http://www.w3.org/2000/svg">
<path d="M127.04 339H140.24V308.86H169.94V299.62H140.24V277.62H175.44V266.62H127.04V339ZM194.613 339H245.103V328H207.813V306.88H236.633V298.3H207.813V277.62H244.113V266.62H194.613V339ZM292.706 340.1C317.346 340.1 324.166 329.21 324.166 317.55C324.166 310.84 321.306 305.78 316.356 303.25C311.846 300.83 304.806 299.62 297.216 298.41C290.946 297.53 282.806 296.21 279.616 294.67C276.756 293.35 275.326 290.93 275.326 286.86C275.326 280.26 281.816 275.75 292.706 275.75C304.036 275.75 309.866 280.81 309.866 291.48H321.746C321.746 274.98 313.936 265.52 292.486 265.52C273.566 265.52 262.236 274.76 262.236 287.96C262.236 294.78 264.986 299.73 269.386 302.48C273.346 305.01 281.046 306.66 288.306 307.65C294.576 308.53 302.386 309.52 306.016 310.95C309.426 312.16 311.076 314.47 311.076 318.43C311.076 324.37 307.336 329.87 292.596 329.87C278.736 329.87 274.336 323.49 274.336 314.25H262.456C262.456 327.45 268.726 340.1 292.706 340.1ZM359.926 339H373.126V277.51H395.566V266.62H337.486V277.51H359.926V339ZM414.746 339H427.836V266.62H414.746V339ZM475.668 339H491.728L520.658 266.62H507.018L484.688 326.9H484.468L461.808 266.62H446.958L475.668 339ZM581.565 339H596.855L567.485 266.62H551.425L521.945 339H535.585L541.745 322.72H575.515L581.565 339ZM545.045 313.92L558.575 277.84H558.795L572.215 313.92H545.045ZM615.625 339H664.685V328H628.825V266.62H615.625V339Z" fill="#790842"/>
<path d="M691.146 333.886L690.728 333.71C690.31 334.436 689.738 334.854 687.846 334.854H684.458L686.064 333.6C687.934 332.126 690.42 329.97 690.42 327.396C690.42 324.514 687.274 323.172 684.81 323.172C682.61 323.172 680.586 323.656 678.496 324.888L679.42 328.65L679.882 328.54C679.882 326.362 681.422 325.086 683.402 325.086C684.81 325.086 685.822 326.23 685.822 327.616C685.822 331.532 680.894 335.91 677.902 338H688C688.858 338 689.122 338.11 689.276 338.374L691.146 333.886ZM706.099 333.886L705.681 333.71C705.263 334.436 704.691 334.854 702.799 334.854H699.411L701.017 333.6C702.887 332.126 705.373 329.97 705.373 327.396C705.373 324.514 702.227 323.172 699.763 323.172C697.563 323.172 695.539 323.656 693.449 324.888L694.373 328.65L694.835 328.54C694.835 326.362 696.375 325.086 698.355 325.086C699.763 325.086 700.775 326.23 700.775 327.616C700.775 331.532 695.847 335.91 692.855 338H702.953C703.811 338 704.075 338.11 704.229 338.374L706.099 333.886ZM713.132 336.02C713.132 334.612 711.988 333.82 710.668 333.82C709.326 333.82 708.16 334.59 708.16 336.02C708.16 337.384 709.282 338.286 710.602 338.286C711.922 338.286 713.132 337.428 713.132 336.02ZM721.841 323.172C717.397 323.172 715.219 326.934 715.219 330.982C715.219 334.942 717.595 338.352 721.797 338.352C726.109 338.352 728.507 334.744 728.507 330.74C728.507 326.692 726.197 323.172 721.841 323.172ZM721.841 324.998C722.963 324.998 723.557 326.296 723.843 327.198C724.195 328.364 724.261 329.64 724.261 330.85C724.261 331.884 724.195 333.006 723.953 333.996C723.689 335.008 723.073 336.526 721.841 336.526C720.741 336.526 720.059 335.03 719.817 334.15C719.531 333.05 719.465 331.884 719.465 330.762C719.465 329.684 719.531 328.342 719.839 327.308C720.103 326.406 720.741 324.998 721.841 324.998ZM740.6 323.986H740.468C740.182 326.032 738.62 327.33 736.486 327.396V332.632H731.932L733.692 330.432C735.056 328.694 736.904 326.274 736.904 323.964C736.904 323.062 736.706 322.358 736.332 321.72C735.452 322.842 734.374 323.942 733.054 324.8C733.428 325.02 733.626 325.46 733.626 325.878C733.626 327.154 733.142 328.034 731.646 330.476L730.81 331.84C730.326 332.61 729.93 333.402 729.93 334.326L729.952 334.656C730.26 334.348 730.37 334.304 731.536 334.304H736.486V335.712C736.486 336.856 735.892 337.428 735.078 337.472V338H741.876V337.472C741.062 337.428 740.6 336.856 740.6 335.712V334.304H741.172C742.14 334.304 742.492 334.48 742.492 334.92L742.8 334.964L743.614 331.862L743.24 331.84C742.888 332.412 742.558 332.632 741.018 332.632H740.6V323.986ZM758.476 330.806L758.146 330.652C757.948 330.96 757.574 331.136 756.65 331.136H755.286C754.252 331.136 754.12 331.07 753.966 330.652L752.404 334.304L752.734 334.48C753.108 333.996 753.702 333.886 754.296 333.886H755.748C756.232 333.886 756.738 333.996 756.914 334.48L758.476 330.806ZM780.865 333.886L780.447 333.71C780.029 334.436 779.457 334.854 777.565 334.854H774.177L775.783 333.6C777.653 332.126 780.139 329.97 780.139 327.396C780.139 324.514 776.993 323.172 774.529 323.172C772.329 323.172 770.305 323.656 768.215 324.888L769.139 328.65L769.601 328.54C769.601 326.362 771.141 325.086 773.121 325.086C774.529 325.086 775.541 326.23 775.541 327.616C775.541 331.532 770.613 335.91 767.621 338H777.719C778.577 338 778.841 338.11 778.995 338.374L780.865 333.886ZM793.992 323.524H786.468C785.83 323.524 785.676 323.414 785.456 323.084H785.368L783.894 327.242L784.312 327.418C784.774 326.406 785.522 326.406 786.842 326.406H790.758L785.39 330.894V331.026C786.05 330.894 786.732 330.806 787.392 330.806C789.438 330.806 791.33 331.576 791.33 333.71C791.33 335.536 789.526 336.702 787.854 336.702C786.402 336.702 784.708 335.844 784.708 334.194C784.708 333.864 784.752 333.6 784.884 333.314L784.4 333.094L782.728 336.68C784.378 337.824 786.402 338.352 788.404 338.352C790.032 338.352 791.902 337.978 793.244 336.988C794.63 335.932 795.466 334.458 795.466 332.72C795.466 330.014 793.178 328.276 790.604 328.276L794.696 325.064L793.992 323.524ZM802.851 336.02C802.851 334.612 801.707 333.82 800.387 333.82C799.045 333.82 797.879 334.59 797.879 336.02C797.879 337.384 799.001 338.286 800.321 338.286C801.641 338.286 802.851 337.428 802.851 336.02ZM811.56 323.172C807.116 323.172 804.938 326.934 804.938 330.982C804.938 334.942 807.314 338.352 811.516 338.352C815.828 338.352 818.226 334.744 818.226 330.74C818.226 326.692 815.916 323.172 811.56 323.172ZM811.56 324.998C812.682 324.998 813.276 326.296 813.562 327.198C813.914 328.364 813.98 329.64 813.98 330.85C813.98 331.884 813.914 333.006 813.672 333.996C813.408 335.008 812.792 336.526 811.56 336.526C810.46 336.526 809.778 335.03 809.536 334.15C809.25 333.05 809.184 331.884 809.184 330.762C809.184 329.684 809.25 328.342 809.558 327.308C809.822 326.406 810.46 324.998 811.56 324.998ZM830.319 323.986H830.187C829.901 326.032 828.339 327.33 826.205 327.396V332.632H821.651L823.411 330.432C824.775 328.694 826.623 326.274 826.623 323.964C826.623 323.062 826.425 322.358 826.051 321.72C825.171 322.842 824.093 323.942 822.773 324.8C823.147 325.02 823.345 325.46 823.345 325.878C823.345 327.154 822.861 328.034 821.365 330.476L820.529 331.84C820.045 332.61 819.649 333.402 819.649 334.326L819.671 334.656C819.979 334.348 820.089 334.304 821.255 334.304H826.205V335.712C826.205 336.856 825.611 337.428 824.797 337.472V338H831.595V337.472C830.781 337.428 830.319 336.856 830.319 335.712V334.304H830.891C831.859 334.304 832.211 334.48 832.211 334.92L832.519 334.964L833.333 331.862L832.959 331.84C832.607 332.412 832.277 332.632 830.737 332.632H830.319V323.986ZM852.154 330.806L851.846 330.652C851.56 331.048 851.274 331.136 850.328 331.136H844.674C843.64 331.136 843.552 331.048 843.376 330.652L841.814 334.304L842.144 334.48C842.474 334.018 842.76 333.886 844.058 333.886H849.14C850.108 333.886 850.438 334.106 850.592 334.48L852.154 330.806ZM869.883 322.952L863.789 324.514L863.899 325.064C864.097 325.02 864.317 324.998 864.537 324.998C865.439 324.998 865.769 325.57 865.769 327.22V334.832C865.769 336.108 865.769 337.34 864.141 337.45V338H871.511V337.45C869.883 337.362 869.883 336.13 869.883 334.854V322.952ZM884.836 322.952L878.742 324.514L878.852 325.064C879.05 325.02 879.27 324.998 879.49 324.998C880.392 324.998 880.722 325.57 880.722 327.22V334.832C880.722 336.108 880.722 337.34 879.094 337.45V338H886.464V337.45C884.836 337.362 884.836 336.13 884.836 334.854V322.952ZM896.093 336.02C896.093 334.612 894.949 333.82 893.629 333.82C892.287 333.82 891.121 334.59 891.121 336.02C891.121 337.384 892.243 338.286 893.563 338.286C894.883 338.286 896.093 337.428 896.093 336.02ZM896.093 329.53C896.093 328.122 894.949 327.352 893.629 327.352C892.287 327.352 891.121 328.1 891.121 329.552C891.121 330.916 892.243 331.818 893.563 331.818C894.883 331.818 896.093 330.938 896.093 329.53ZM904.802 323.172C900.358 323.172 898.18 326.934 898.18 330.982C898.18 334.942 900.556 338.352 904.758 338.352C909.07 338.352 911.468 334.744 911.468 330.74C911.468 326.692 909.158 323.172 904.802 323.172ZM904.802 324.998C905.924 324.998 906.518 326.296 906.804 327.198C907.156 328.364 907.222 329.64 907.222 330.85C907.222 331.884 907.156 333.006 906.914 333.996C906.65 335.008 906.034 336.526 904.802 336.526C903.702 336.526 903.02 335.03 902.778 334.15C902.492 333.05 902.426 331.884 902.426 330.762C902.426 329.684 902.492 328.342 902.8 327.308C903.064 326.406 903.702 324.998 904.802 324.998ZM919.755 323.172C915.311 323.172 913.133 326.934 913.133 330.982C913.133 334.942 915.509 338.352 919.711 338.352C924.023 338.352 926.421 334.744 926.421 330.74C926.421 326.692 924.111 323.172 919.755 323.172ZM919.755 324.998C920.877 324.998 921.471 326.296 921.757 327.198C922.109 328.364 922.175 329.64 922.175 330.85C922.175 331.884 922.109 333.006 921.867 333.996C921.603 335.008 920.987 336.526 919.755 336.526C918.655 336.526 917.973 335.03 917.731 334.15C917.445 333.05 917.379 331.884 917.379 330.762C917.379 329.684 917.445 328.342 917.753 327.308C918.017 326.406 918.655 324.998 919.755 324.998ZM933.96 330.806L933.63 330.652C933.432 330.96 933.058 331.136 932.134 331.136H930.77C929.736 331.136 929.604 331.07 929.45 330.652L927.888 334.304L928.218 334.48C928.592 333.996 929.186 333.886 929.78 333.886H931.232C931.716 333.886 932.222 333.996 932.398 334.48L933.96 330.806ZM944.649 322.952L938.555 324.514L938.665 325.064C938.863 325.02 939.083 324.998 939.303 324.998C940.205 324.998 940.535 325.57 940.535 327.22V334.832C940.535 336.108 940.535 337.34 938.907 337.45V338H946.277V337.45C944.649 337.362 944.649 336.13 944.649 334.854V322.952ZM962.792 323.722C961.428 323.414 960.042 323.172 958.634 323.172C953.86 323.172 950.56 326.318 950.56 331.136C950.56 335.25 953.134 338.352 957.402 338.352C960.658 338.352 963.76 336.548 963.76 332.962C963.76 330.058 961.736 328.32 958.92 328.32C957.182 328.32 955.73 328.936 954.52 330.168C954.498 329.97 954.476 329.75 954.476 329.552C954.476 327.22 956.412 324.822 958.832 324.822C960.658 324.822 961.516 325.988 961.516 327.594L961.956 327.638L962.792 323.722ZM957.402 330.146C959.118 330.146 959.646 331.95 959.646 333.358C959.646 334.766 959.118 336.702 957.38 336.702C955.51 336.702 954.96 334.92 954.96 333.402C954.96 332.72 955.07 331.906 955.444 331.334C955.862 330.696 956.632 330.146 957.402 330.146ZM970.859 336.02C970.859 334.612 969.715 333.82 968.395 333.82C967.053 333.82 965.887 334.59 965.887 336.02C965.887 337.384 967.009 338.286 968.329 338.286C969.649 338.286 970.859 337.428 970.859 336.02ZM970.859 329.53C970.859 328.122 969.715 327.352 968.395 327.352C967.053 327.352 965.887 328.1 965.887 329.552C965.887 330.916 967.009 331.818 968.329 331.818C969.649 331.818 970.859 330.938 970.859 329.53ZM979.567 323.172C975.123 323.172 972.945 326.934 972.945 330.982C972.945 334.942 975.321 338.352 979.523 338.352C983.835 338.352 986.233 334.744 986.233 330.74C986.233 326.692 983.923 323.172 979.567 323.172ZM979.567 324.998C980.689 324.998 981.283 326.296 981.569 327.198C981.921 328.364 981.987 329.64 981.987 330.85C981.987 331.884 981.921 333.006 981.679 333.996C981.415 335.008 980.799 336.526 979.567 336.526C978.467 336.526 977.785 335.03 977.543 334.15C977.257 333.05 977.191 331.884 977.191 330.762C977.191 329.684 977.257 328.342 977.565 327.308C977.829 326.406 978.467 324.998 979.567 324.998ZM994.521 323.172C990.077 323.172 987.899 326.934 987.899 330.982C987.899 334.942 990.275 338.352 994.477 338.352C998.789 338.352 1001.19 334.744 1001.19 330.74C1001.19 326.692 998.877 323.172 994.521 323.172ZM994.521 324.998C995.643 324.998 996.237 326.296 996.523 327.198C996.875 328.364 996.941 329.64 996.941 330.85C996.941 331.884 996.875 333.006 996.633 333.996C996.369 335.008 995.753 336.526 994.521 336.526C993.421 336.526 992.739 335.03 992.497 334.15C992.211 333.05 992.145 331.884 992.145 330.762C992.145 329.684 992.211 328.342 992.519 327.308C992.783 326.406 993.421 324.998 994.521 324.998Z" fill="#790842"/>
<path d="M691.972 283.868C691.918 284.012 691.702 284.156 691.054 284.156H682.27L682.252 284.606C682.99 284.606 683.242 285.146 683.242 286.406V293.75C683.242 295.01 682.99 295.55 682.252 295.55L682.27 296H688.03V295.55C687.508 295.55 686.932 295.37 686.932 293.228V289.34H687.382C689.272 289.34 690.298 289.844 690.586 291.446H690.964L690.37 286.604L689.992 286.64C689.992 287.81 689.704 288.152 687.958 288.152H686.932V287.054C686.932 285.65 687.292 285.344 688.66 285.344C690.37 285.344 691.828 286.244 692.476 288.17L692.836 288.044L691.972 283.868ZM701.158 287.09C700.87 287.018 700.564 286.964 700.258 286.964C699.124 286.964 697.882 287.954 697.45 288.98C697.396 288.296 697.324 287.576 696.91 286.982L693.094 287.234V287.684C693.76 287.72 694.084 288.188 694.084 289.124V294.092C694.084 295.046 693.688 295.55 693.094 295.55V296H698.512V295.55C697.918 295.55 697.45 295.082 697.45 294.11V291.932C697.45 290.636 697.468 290.42 697.738 289.97C698.062 289.43 698.548 289.034 699.214 289.034C699.754 289.034 700.15 289.178 700.528 289.556L701.158 287.09ZM711.376 290.492C710.962 288.008 708.946 286.892 706.57 286.892C703.762 286.892 701.188 288.458 701.188 291.5C701.188 292.976 701.854 294.308 703.042 295.172C704.086 295.946 705.526 296.234 706.786 296.234C707.866 296.234 708.91 295.946 709.396 295.946C709.702 295.946 709.864 296.054 710.044 296.18L711.16 292.724L710.782 292.58C710.242 293.858 709.054 294.74 707.632 294.74C705.94 294.74 705.076 293.336 704.896 291.806L711.376 290.492ZM707.758 290.114L704.788 290.708C704.788 289.736 705.148 288.278 706.336 288.278C707.182 288.278 707.758 288.998 707.758 289.808V290.114ZM722.169 290.492C721.755 288.008 719.739 286.892 717.363 286.892C714.555 286.892 711.981 288.458 711.981 291.5C711.981 292.976 712.647 294.308 713.835 295.172C714.879 295.946 716.319 296.234 717.579 296.234C718.659 296.234 719.703 295.946 720.189 295.946C720.495 295.946 720.657 296.054 720.837 296.18L721.953 292.724L721.575 292.58C721.035 293.858 719.847 294.74 718.425 294.74C716.733 294.74 715.869 293.336 715.689 291.806L722.169 290.492ZM718.551 290.114L715.581 290.708C715.581 289.736 715.941 288.278 717.129 288.278C717.975 288.278 718.551 288.998 718.551 289.808V290.114ZM738.341 283.868C738.125 284.102 737.891 284.156 736.829 284.156H728.657V284.606C729.395 284.606 729.647 285.146 729.647 286.406V293.75C729.647 295.01 729.395 295.55 728.657 295.55V296H737.585C738.071 296 738.449 296.036 738.665 296.288L740.195 291.608L739.817 291.464C738.863 293.426 737.387 294.812 735.083 294.812C733.661 294.812 733.337 294.344 733.337 293.12V289.214H733.823C735.263 289.214 735.803 289.448 736.181 289.79C736.577 290.15 736.865 290.618 737.063 291.122L737.423 291.086L736.631 286.514L736.271 286.568C736.271 287.864 735.623 288.026 733.913 288.026H733.337V287.45C733.337 285.668 733.445 285.344 734.993 285.344C736.793 285.344 738.341 286.388 738.863 288.134L739.259 288.008L738.341 283.868ZM750.944 289.952C750.944 287.972 750.458 286.892 748.532 286.892C747.074 286.892 745.814 287.666 744.95 288.692C744.824 288.116 744.77 287.504 744.446 286.982L740.612 287.234V287.684C741.278 287.72 741.584 288.188 741.584 289.124V294.092C741.584 295.046 741.278 295.514 740.612 295.55V296H746.03V295.55C745.364 295.514 744.95 295.046 744.95 294.092V291.806C744.95 291.194 745.004 290.384 745.274 289.826C745.508 289.304 746.084 288.836 746.732 288.836C747.452 288.836 747.578 289.322 747.578 290.636V294.092C747.578 295.046 747.218 295.514 746.552 295.55V296H751.934V295.55C751.268 295.514 750.944 295.046 750.944 294.092V289.952ZM756.905 283.544C755.915 284.174 754.817 284.66 753.629 284.858C753.701 285.164 753.773 285.488 753.773 285.812C753.773 286.784 753.269 287.72 752.261 287.936V288.386H753.539V293.066C753.539 293.858 753.557 294.74 754.097 295.388C754.637 296.018 755.573 296.234 756.365 296.234C757.337 296.234 758.327 296.036 759.227 295.64L760.145 293.066L759.767 292.922C759.425 293.66 758.885 294.506 757.985 294.506C756.941 294.506 756.905 293.336 756.905 292.598V288.386H758.039C758.615 288.386 758.705 288.404 758.849 288.512L759.389 287.09C759.191 287.198 758.867 287.288 758.273 287.288H756.905V283.544ZM768.307 287.09C768.019 287.018 767.713 286.964 767.407 286.964C766.273 286.964 765.031 287.954 764.599 288.98C764.545 288.296 764.473 287.576 764.059 286.982L760.243 287.234V287.684C760.909 287.72 761.233 288.188 761.233 289.124V294.092C761.233 295.046 760.837 295.55 760.243 295.55V296H765.661V295.55C765.067 295.55 764.599 295.082 764.599 294.11V291.932C764.599 290.636 764.617 290.42 764.887 289.97C765.211 289.43 765.697 289.034 766.363 289.034C766.903 289.034 767.299 289.178 767.677 289.556L768.307 287.09ZM777.697 290.294C777.697 288.638 777.463 288.008 776.833 287.54C776.149 287 774.979 286.892 774.133 286.892C772.945 286.892 771.865 287.126 770.821 287.378C770.587 287.432 770.335 287.486 770.101 287.486C769.831 287.486 769.687 287.36 769.507 287.18L769.147 290.402L769.507 290.438C770.065 289.124 771.235 288.26 772.693 288.26C773.179 288.26 773.701 288.35 774.061 288.728C774.277 288.98 774.331 289.268 774.331 289.574V290.078C772.189 290.402 768.319 291.176 768.319 293.966C768.319 295.442 769.669 296.234 771.019 296.234C772.117 296.234 773.665 295.748 774.313 294.794C774.421 295.244 774.601 295.676 774.943 296H778.687V295.55C777.841 295.46 777.697 295.1 777.697 293.57V290.294ZM774.331 291.104C774.331 292.202 774.151 294.434 772.657 294.434C772.045 294.434 771.685 293.876 771.685 293.318C771.685 292.652 772.243 291.968 772.783 291.626C773.269 291.302 773.773 291.194 774.331 291.104ZM789.475 289.952C789.475 287.972 788.989 286.892 787.063 286.892C785.605 286.892 784.345 287.666 783.481 288.692C783.355 288.116 783.301 287.504 782.977 286.982L779.143 287.234V287.684C779.809 287.72 780.115 288.188 780.115 289.124V294.092C780.115 295.046 779.809 295.514 779.143 295.55V296H784.561V295.55C783.895 295.514 783.481 295.046 783.481 294.092V291.806C783.481 291.194 783.535 290.384 783.805 289.826C784.039 289.304 784.615 288.836 785.263 288.836C785.983 288.836 786.109 289.322 786.109 290.636V294.092C786.109 295.046 785.749 295.514 785.083 295.55V296H790.465V295.55C789.799 295.514 789.475 295.046 789.475 294.092V289.952ZM799.36 286.802C799.234 287.018 798.964 287.108 798.712 287.108C798.55 287.108 798.37 287.072 798.208 287.054C797.578 286.982 797.218 286.892 796.336 286.892C793.6 286.892 791.278 288.35 791.278 291.302C791.278 294.56 793.906 296.234 796.894 296.234C797.236 296.234 797.596 296.198 797.938 296.162C798.226 296.126 798.514 296.072 798.802 296.072C799.108 296.072 799.306 296.09 799.558 296.27L800.836 293.102L800.494 292.94C799.972 293.984 798.91 294.74 797.722 294.74C795.904 294.74 794.878 292.868 794.878 291.23C794.878 289.484 795.976 288.242 797.362 288.242C798.568 288.242 799.522 289.376 799.792 290.474L800.17 290.384L799.36 286.802ZM811.818 290.492C811.404 288.008 809.388 286.892 807.012 286.892C804.204 286.892 801.63 288.458 801.63 291.5C801.63 292.976 802.296 294.308 803.484 295.172C804.528 295.946 805.968 296.234 807.228 296.234C808.308 296.234 809.352 295.946 809.838 295.946C810.144 295.946 810.306 296.054 810.486 296.18L811.602 292.724L811.224 292.58C810.684 293.858 809.496 294.74 808.074 294.74C806.382 294.74 805.518 293.336 805.338 291.806L811.818 290.492ZM808.2 290.114L805.23 290.708C805.23 289.736 805.59 288.278 806.778 288.278C807.624 288.278 808.2 288.998 808.2 289.808V290.114ZM823.58 290.114L823.31 289.988C823.148 290.24 822.842 290.384 822.086 290.384H820.97C820.124 290.384 820.016 290.33 819.89 289.988L818.612 292.976L818.882 293.12C819.188 292.724 819.674 292.634 820.16 292.634H821.348C821.744 292.634 822.158 292.724 822.302 293.12L823.58 290.114ZM836.3 284.156H830.648V284.606C831.386 284.606 831.638 285.146 831.638 286.406V293.75C831.638 295.01 831.386 295.55 830.648 295.55V296H838.802C838.982 296 839.234 296 839.45 296.018C839.684 296.036 839.9 296.108 839.99 296.288L841.484 291.266L841.124 291.14C840.404 292.958 838.748 294.812 836.642 294.812C835.4 294.812 835.328 294.29 835.328 293.714V286.406C835.328 285.146 835.58 284.606 836.318 284.606L836.3 284.156ZM851.296 290.294C851.296 288.638 851.062 288.008 850.432 287.54C849.748 287 848.578 286.892 847.732 286.892C846.544 286.892 845.464 287.126 844.42 287.378C844.186 287.432 843.934 287.486 843.7 287.486C843.43 287.486 843.286 287.36 843.106 287.18L842.746 290.402L843.106 290.438C843.664 289.124 844.834 288.26 846.292 288.26C846.778 288.26 847.3 288.35 847.66 288.728C847.876 288.98 847.93 289.268 847.93 289.574V290.078C845.788 290.402 841.918 291.176 841.918 293.966C841.918 295.442 843.268 296.234 844.618 296.234C845.716 296.234 847.264 295.748 847.912 294.794C848.02 295.244 848.2 295.676 848.542 296H852.286V295.55C851.44 295.46 851.296 295.1 851.296 293.57V290.294ZM847.93 291.104C847.93 292.202 847.75 294.434 846.256 294.434C845.644 294.434 845.284 293.876 845.284 293.318C845.284 292.652 845.842 291.968 846.382 291.626C846.868 291.302 847.372 291.194 847.93 291.104ZM863.075 289.952C863.075 287.972 862.589 286.892 860.663 286.892C859.205 286.892 857.945 287.666 857.081 288.692C856.955 288.116 856.901 287.504 856.577 286.982L852.743 287.234V287.684C853.409 287.72 853.715 288.188 853.715 289.124V294.092C853.715 295.046 853.409 295.514 852.743 295.55V296H858.161V295.55C857.495 295.514 857.081 295.046 857.081 294.092V291.806C857.081 291.194 857.135 290.384 857.405 289.826C857.639 289.304 858.215 288.836 858.863 288.836C859.583 288.836 859.709 289.322 859.709 290.636V294.092C859.709 295.046 859.349 295.514 858.683 295.55V296H864.065V295.55C863.399 295.514 863.075 295.046 863.075 294.092V289.952ZM876.092 287.126H871.808C870.314 287.126 868.352 287.126 867.056 287.954C865.67 288.836 864.896 290.42 864.896 292.04C864.896 293.318 865.328 294.524 866.372 295.352C867.254 296.054 868.244 296.216 869.288 296.216C870.206 296.216 871.034 296.108 871.88 296.108C872.474 296.108 872.924 296.396 872.924 297.08C872.924 297.71 872.33 298.196 871.808 298.412C871.178 298.7 870.476 298.79 869.81 298.79C869.036 298.79 868.154 298.646 867.506 298.196C867.074 297.908 866.75 297.44 866.75 296.918C866.75 296.738 866.804 296.558 866.876 296.396L866.552 296.162L864.662 298.664C866.138 299.87 868.118 300.158 869.972 300.158C871.268 300.158 872.69 299.996 873.914 299.528C875.066 299.096 876.416 298.196 876.416 296.792C876.416 295.892 876.074 295.532 875.498 294.974C875.246 294.722 875.102 294.506 875.102 293.3V289.556C875.102 287.99 875.282 287.648 876.092 287.576V287.126ZM871.736 293.516C871.736 294.596 871.574 294.92 870.836 294.92C869.09 294.92 868.496 293.354 868.496 291.842C868.496 289.88 869.45 288.242 871.736 288.242V293.516ZM887.21 290.492C886.796 288.008 884.78 286.892 882.404 286.892C879.596 286.892 877.022 288.458 877.022 291.5C877.022 292.976 877.688 294.308 878.876 295.172C879.92 295.946 881.36 296.234 882.62 296.234C883.7 296.234 884.744 295.946 885.23 295.946C885.536 295.946 885.698 296.054 885.878 296.18L886.994 292.724L886.616 292.58C886.076 293.858 884.888 294.74 883.466 294.74C881.774 294.74 880.91 293.336 880.73 291.806L887.21 290.492ZM883.592 290.114L880.622 290.708C880.622 289.736 880.982 288.278 882.17 288.278C883.016 288.278 883.592 288.998 883.592 289.808V290.114ZM892.099 283.85L887.743 284.102V284.552C888.409 284.588 888.733 285.056 888.733 285.992V294.11C888.733 295.046 888.409 295.514 887.743 295.55V296H893.107V295.55C892.441 295.514 892.099 295.046 892.099 294.11V283.85ZM898.108 286.982L893.788 287.234V287.684C894.454 287.72 894.76 288.188 894.76 289.124V294.092C894.76 295.046 894.454 295.514 893.788 295.55V296H899.116V295.55C898.45 295.514 898.108 295.046 898.108 294.092V286.982ZM898.216 284.48C898.216 283.454 897.46 282.806 896.47 282.806C895.516 282.806 894.562 283.382 894.562 284.426C894.562 285.452 895.408 286.046 896.362 286.046C897.28 286.046 898.216 285.452 898.216 284.48ZM910.22 289.952C910.22 287.972 909.734 286.892 907.808 286.892C906.35 286.892 905.09 287.666 904.226 288.692C904.1 288.116 904.046 287.504 903.722 286.982L899.888 287.234V287.684C900.554 287.72 900.86 288.188 900.86 289.124V294.092C900.86 295.046 900.554 295.514 899.888 295.55V296H905.306V295.55C904.64 295.514 904.226 295.046 904.226 294.092V291.806C904.226 291.194 904.28 290.384 904.55 289.826C904.784 289.304 905.36 288.836 906.008 288.836C906.728 288.836 906.854 289.322 906.854 290.636V294.092C906.854 295.046 906.494 295.514 905.828 295.55V296H911.21V295.55C910.544 295.514 910.22 295.046 910.22 294.092V289.952ZM916.666 286.982L912.31 287.234V287.684C912.976 287.684 913.3 288.098 913.3 289.124V296.756C913.3 298.214 913.138 298.844 912.112 298.844C911.392 298.844 910.762 298.268 910.762 297.512C910.762 297.224 910.816 296.954 910.924 296.684L910.6 296.522L909.196 299.078C910.24 299.744 911.482 300.032 912.688 300.032C913.696 300.032 914.83 299.798 915.64 299.168C916.594 298.43 916.666 297.584 916.666 296.468V286.982ZM916.828 284.552C916.828 283.526 916.072 282.878 915.082 282.878C914.146 282.878 913.174 283.454 913.174 284.48C913.174 285.506 914.02 286.118 914.974 286.118C915.892 286.118 916.828 285.524 916.828 284.552ZM928.431 290.492C928.017 288.008 926.001 286.892 923.625 286.892C920.817 286.892 918.243 288.458 918.243 291.5C918.243 292.976 918.909 294.308 920.097 295.172C921.141 295.946 922.581 296.234 923.841 296.234C924.921 296.234 925.965 295.946 926.451 295.946C926.757 295.946 926.919 296.054 927.099 296.18L928.215 292.724L927.837 292.58C927.297 293.858 926.109 294.74 924.687 294.74C922.995 294.74 922.131 293.336 921.951 291.806L928.431 290.492ZM924.813 290.114L921.843 290.708C921.843 289.736 922.203 288.278 923.391 288.278C924.237 288.278 924.813 288.998 924.813 289.808V290.114ZM940.193 290.114L939.923 289.988C939.761 290.24 939.455 290.384 938.699 290.384H937.583C936.737 290.384 936.629 290.33 936.503 289.988L935.225 292.976L935.495 293.12C935.801 292.724 936.287 292.634 936.773 292.634H937.961C938.357 292.634 938.771 292.724 938.915 293.12L940.193 290.114ZM958.512 292.634L958.17 292.49C957.828 293.084 957.36 293.426 955.812 293.426H953.04L954.354 292.4C955.884 291.194 957.918 289.43 957.918 287.324C957.918 284.966 955.344 283.868 953.328 283.868C951.528 283.868 949.872 284.264 948.162 285.272L948.918 288.35L949.296 288.26C949.296 286.478 950.556 285.434 952.176 285.434C953.328 285.434 954.156 286.37 954.156 287.504C954.156 290.708 950.124 294.29 947.676 296H955.938C956.64 296 956.855 296.09 956.982 296.306L958.512 292.634ZM965.274 283.868C961.638 283.868 959.856 286.946 959.856 290.258C959.856 293.498 961.8 296.288 965.238 296.288C968.766 296.288 970.728 293.336 970.728 290.06C970.728 286.748 968.838 283.868 965.274 283.868ZM965.274 285.362C966.192 285.362 966.678 286.424 966.912 287.162C967.2 288.116 967.254 289.16 967.254 290.15C967.254 290.996 967.2 291.914 967.002 292.724C966.786 293.552 966.282 294.794 965.274 294.794C964.374 294.794 963.816 293.57 963.618 292.85C963.384 291.95 963.33 290.996 963.33 290.078C963.33 289.196 963.384 288.098 963.636 287.252C963.852 286.514 964.374 285.362 965.274 285.362ZM982.98 292.634L982.638 292.49C982.296 293.084 981.828 293.426 980.28 293.426H977.508L978.822 292.4C980.352 291.194 982.386 289.43 982.386 287.324C982.386 284.966 979.812 283.868 977.796 283.868C975.996 283.868 974.34 284.264 972.63 285.272L973.386 288.35L973.764 288.26C973.764 286.478 975.024 285.434 976.644 285.434C977.796 285.434 978.624 286.37 978.624 287.504C978.624 290.708 974.592 294.29 972.144 296H980.406C981.108 296 981.324 296.09 981.45 296.306L982.98 292.634ZM993.721 284.156H987.565C987.043 284.156 986.917 284.066 986.737 283.796H986.665L985.459 287.198L985.801 287.342C986.179 286.514 986.791 286.514 987.871 286.514H991.075L986.683 290.186V290.294C987.223 290.186 987.781 290.114 988.321 290.114C989.995 290.114 991.543 290.744 991.543 292.49C991.543 293.984 990.067 294.938 988.699 294.938C987.511 294.938 986.125 294.236 986.125 292.886C986.125 292.616 986.161 292.4 986.269 292.166L985.873 291.986L984.505 294.92C985.855 295.856 987.511 296.288 989.149 296.288C990.481 296.288 992.011 295.982 993.109 295.172C994.243 294.308 994.927 293.102 994.927 291.68C994.927 289.466 993.055 288.044 990.949 288.044L994.297 285.416L993.721 284.156Z" fill="#790842"/>
<path d="M230.492 110.6C227.692 114 222.092 115.4 218.092 115.4C213.892 115.4 201.892 111.2 181.492 111.2C164.092 111.2 131.092 119.2 131.092 155.2C131.092 164.4 135.692 173.6 142.892 179.4C149.092 184.4 158.492 187.8 166.092 190.2L186.292 196.8C202.092 202 206.892 206.8 206.892 213.4C206.892 230 191.292 233.2 177.692 233.2C153.892 233.2 134.892 215.8 131.092 192.6L126.692 193.2L131.092 249C134.092 246 137.292 244.2 141.892 244.2C145.692 244.2 151.292 245.4 155.092 246.2C165.092 248 172.892 249.2 183.092 249.2C224.092 249.2 249.292 234 249.292 200.8C249.292 184 234.292 170.6 216.092 165.2L192.692 158.2C176.292 153.4 171.892 150 171.892 143C171.892 131.6 184.092 127.2 193.892 127.2C209.892 127.2 225.892 140 231.492 154.6L235.692 154L230.492 110.6ZM356.669 114.4H298.269V119.4C301.069 119.8 302.669 121.4 302.669 124.4C302.669 127.2 300.869 131.4 299.269 135.8L267.869 218.2C264.269 227.6 259.869 238.6 249.069 241V246H293.069V241C287.669 240.4 283.869 238.4 283.869 232.2C283.869 227.8 286.269 220.2 287.669 216L294.869 195.6C313.469 196 341.869 208.2 341.869 229.4C341.869 236.2 337.269 240.6 330.869 241V246H399.869V241C389.269 239.8 386.269 226.8 383.269 218.4C369.469 177.6 352.069 127 352.069 124.4C352.069 121 353.669 119.8 356.669 119.4V114.4ZM313.669 141L330.069 192.2C322.069 186.6 309.869 182.6 299.669 182.6L313.669 141ZM541.523 114.4H483.523V119.4C489.523 119.4 492.923 122 492.923 126.8C492.923 131.8 482.923 140.8 479.523 144.2L458.123 163.4V140.4C458.123 126 460.923 119.6 469.123 119.4L468.923 114.4H406.123V119.4C414.323 119.4 417.123 125.4 417.123 139.4V221C417.123 235 414.323 241 406.123 241V246H470.323V241C462.123 241 458.123 235 458.123 221V180L465.123 173.6C472.523 182.4 479.323 191.6 484.323 201.8C487.923 209 494.923 226.6 494.923 234.2C494.923 239.6 490.123 240.8 485.723 241V245.8H553.923V241C543.923 241 540.723 233.6 537.723 225.4C527.523 196 515.923 170.4 493.723 147.8L503.923 139C514.923 129.8 527.123 121.6 541.523 119.4V114.4ZM683.17 114.4H642.57V119.4C654.37 120.4 655.17 127.6 655.77 138.2L658.37 186.4C658.57 190 658.77 193.6 658.77 196.6C658.77 205.6 657.77 212.2 655.17 218.4C651.57 227.4 640.17 232.4 629.57 232.4C621.57 232.4 611.17 229.4 605.77 220.6C603.17 216 601.97 210.8 601.97 202.8C601.97 200.6 601.97 198.2 602.17 195.6L605.77 138.2C606.37 127.4 607.37 120.8 618.77 119.4V114.4H553.97V119.4C562.97 120.6 564.77 125.2 564.77 132.6C564.77 134.4 564.77 136.2 564.57 138.2L561.17 197.8C560.97 200.4 560.97 203 560.97 205.4C560.97 220.6 564.17 229.8 575.37 238.8C587.77 248.6 611.57 249.4 617.77 249.4C628.97 249.4 647.97 247.4 661.97 235.4C672.17 226.8 675.37 215 675.37 201.8C675.37 200.2 675.17 198.6 675.17 196.8L672.17 138.2C671.97 136.2 671.97 134.4 671.97 132.6C671.97 125.2 673.77 120.4 683.17 119.4V114.4ZM835.508 241C826.708 241 822.708 231.6 820.508 224.6C813.508 203.2 801.908 183.2 787.108 169C800.308 162.2 815.508 151.2 815.508 134.6C815.508 115.6 792.508 114.4 779.308 114.4H689.308V119.4C697.508 119.4 700.308 125.4 700.308 139.4V221C700.308 235 697.508 241 689.308 241V246H752.108V241C743.908 241 741.108 235 741.108 221V186L748.108 183.6C756.508 193.4 776.508 222.2 776.508 234.4C776.508 239.8 772.908 241 768.308 241V246H835.508V241ZM741.108 141.8C741.108 130 745.508 127.6 756.308 127.6C766.308 127.6 773.108 132.8 773.108 143C773.108 160 754.708 168 741.108 171.4V141.8ZM940.653 114.4H882.253V119.4C885.053 119.8 886.653 121.4 886.653 124.4C886.653 127.2 884.853 131.4 883.253 135.8L851.853 218.2C848.253 227.6 843.853 238.6 833.053 241V246H877.053V241C871.653 240.4 867.853 238.4 867.853 232.2C867.853 227.8 870.253 220.2 871.653 216L878.853 195.6C897.453 196 925.853 208.2 925.853 229.4C925.853 236.2 921.253 240.6 914.853 241V246H983.853V241C973.253 239.8 970.253 226.8 967.253 218.4C953.453 177.6 936.053 127 936.053 124.4C936.053 121 937.653 119.8 940.653 119.4V114.4ZM897.653 141L914.053 192.2C906.053 186.6 893.853 182.6 883.653 182.6L897.653 141Z" fill="#790842"/>
<path d="M34.3543 88.9C49.0243 88.9 60.0943 80.08 60.0943 66.67V65.5H55.3243V66.49C55.3243 77.2 46.1443 84.22 34.3543 84.22C20.8543 84.22 10.1443 74.41 10.1443 58.48C10.1443 42.37 20.5843 32.56 34.2643 32.56C45.9643 32.56 55.0543 39.76 55.0543 50.83V52.72H59.8243V50.56C59.8243 36.88 48.9343 27.88 34.2643 27.88C17.4343 27.88 5.1043 39.58 5.1043 58.48C5.1043 77.29 17.7043 88.9 34.3543 88.9ZM91.8397 88.72C104.98 88.72 113.89 79.99 113.89 65.86C113.89 51.64 104.98 42.82 91.8397 42.82C78.6097 42.82 69.7897 51.64 69.7897 65.86C69.7897 79.99 78.6097 88.72 91.8397 88.72ZM91.8397 84.31C81.6697 84.31 74.6497 77.29 74.6497 65.86C74.6497 54.34 81.6697 47.23 91.8397 47.23C102.01 47.23 109.03 54.34 109.03 65.86C109.03 77.29 102.01 84.31 91.8397 84.31ZM125.471 105.82H130.331V87.1C130.331 84.94 130.151 80.26 130.061 77.38H130.151C132.311 83.77 138.701 88.72 149.141 88.72C161.561 88.72 169.931 79.63 169.931 64.96C169.931 51.37 161.831 42.82 148.961 42.82C138.791 42.82 131.951 48.31 130.241 56.14H130.151L130.331 43.54H125.471V105.82ZM148.511 84.31C136.811 84.31 130.331 77.38 130.331 68.56V65.68C130.511 54.61 137.171 47.23 148.151 47.23C158.501 47.23 165.071 54.07 165.071 65.05C165.071 77.02 158.231 84.31 148.511 84.31ZM220.785 63.61C220.785 50.2 213.315 42.82 201.075 42.82C187.935 42.82 179.565 51.73 179.565 66.13C179.565 80.08 188.025 88.72 201.255 88.72C212.505 88.72 220.335 82.78 220.785 73.24H216.195C215.565 80.17 209.625 84.49 201.255 84.49C191.085 84.49 184.515 77.65 184.425 66.31H220.785V63.61ZM216.195 62.62H184.605C185.775 52.63 191.985 47.05 201.255 47.05C210.435 47.05 216.195 52.36 216.195 62.17V62.62ZM231.982 88H236.842V65.23C236.842 53.8 244.222 47.23 255.022 47.23C265.192 47.23 270.412 52.36 270.412 61.36V88H275.272V60.46C275.272 49.3 268.342 42.82 256.462 42.82C245.842 42.82 239.182 47.77 236.752 55.87H236.662L236.842 43.54H231.982V88ZM287.893 88H292.753V65.77C292.753 53.89 300.133 47.23 311.023 47.23C321.103 47.23 326.323 52.36 326.323 61.36V88H331.183V60.46C331.183 49.3 324.253 42.82 312.373 42.82C301.753 42.82 295.093 47.86 292.663 56.05H292.573C292.573 53.89 292.753 48.85 292.753 46.51V25.63H287.893V88ZM358.459 88.72C369.349 88.72 376.099 83.95 377.899 76.48H377.989C377.989 80.71 377.809 85.48 377.809 88H382.669V60.19C382.669 49.12 375.019 42.82 362.509 42.82C350.809 42.82 343.339 48.04 343.339 56.77C343.339 57.67 343.429 58.93 343.519 59.47H348.019C347.929 58.84 347.929 58.03 347.929 57.4C347.929 50.74 353.419 47.05 362.419 47.05C372.139 47.05 377.809 51.46 377.809 59.83V63.97H358.009C346.309 63.97 341.989 69.19 341.989 75.49C341.989 83.68 348.649 88.72 358.459 88.72ZM359.359 84.49C351.709 84.49 346.579 81.07 346.579 75.49C346.579 70.72 349.729 67.66 358.459 67.66H377.809V68.29C377.809 78.37 370.519 84.49 359.359 84.49ZM423.555 82.51H409.245C405.375 82.51 403.305 80.53 403.305 77.29C403.305 75.4 403.935 73.78 404.745 73.06C407.175 73.96 409.965 74.5 413.205 74.5C424.365 74.5 431.295 68.29 431.295 58.66C431.295 54.88 430.215 51.64 428.235 49.03C427.335 46.96 426.705 44.89 426.705 43.18C426.705 40.48 428.505 39.13 431.475 39.13C433.095 39.13 434.265 39.49 434.805 39.76V35.71C434.175 35.44 432.915 35.08 430.935 35.08C426.255 35.08 423.465 37.33 423.465 41.02C423.465 43 424.185 44.8 425.085 45.97V46.06C422.025 43.99 417.975 42.82 413.205 42.82C402.045 42.82 395.115 49.03 395.115 58.66C395.115 64.33 397.455 68.74 401.685 71.53V71.71C400.335 72.7 399.075 74.86 399.075 78.01C399.075 81.07 400.425 83.5 402.675 85.03V85.12C397.005 85.12 392.955 88.9 392.955 94.12C392.955 102.31 401.415 106.99 415.545 106.99C428.955 106.99 436.965 101.68 436.965 92.95C436.965 86.38 432.105 82.51 423.555 82.51ZM413.205 47.05C421.485 47.05 426.525 51.55 426.525 58.66C426.525 65.77 421.485 70.27 413.205 70.27C404.925 70.27 399.885 65.77 399.885 58.66C399.885 51.55 404.925 47.05 413.205 47.05ZM415.545 102.76C404.565 102.76 397.815 99.79 397.815 93.94C397.815 89.17 402.045 86.74 409.245 86.74H422.925C428.955 86.74 432.105 89.08 432.105 93.4C432.105 98.98 426.975 102.76 415.545 102.76ZM483.578 63.61C483.578 50.2 476.108 42.82 463.868 42.82C450.728 42.82 442.358 51.73 442.358 66.13C442.358 80.08 450.818 88.72 464.048 88.72C475.298 88.72 483.128 82.78 483.578 73.24H478.988C478.358 80.17 472.418 84.49 464.048 84.49C453.878 84.49 447.308 77.65 447.218 66.31H483.578V63.61ZM478.988 62.62H447.398C448.568 52.63 454.778 47.05 464.048 47.05C473.228 47.05 478.988 52.36 478.988 62.17V62.62ZM494.775 88H499.635V65.23C499.635 53.8 507.015 47.23 517.815 47.23C527.985 47.23 533.205 52.36 533.205 61.36V88H538.065V60.46C538.065 49.3 531.135 42.82 519.255 42.82C508.635 42.82 501.975 47.77 499.545 55.87H499.455L499.635 43.54H494.775V88Z" fill="#790842"/>
</svg>
