<svg width="41" height="42" viewBox="0 0 41 42" fill="none" xmlns="http://www.w3.org/2000/svg">
<path fill-rule="evenodd" clip-rule="evenodd" d="M3 19.476C3 10.39 10.392 3 19.478 3C28.562 3 35.954 10.39 35.954 19.476C35.954 28.562 28.562 35.954 19.478 35.954C10.392 35.954 3 28.562 3 19.476ZM0 19.476C0 30.216 8.738 38.954 19.478 38.954C24.0713 38.954 28.2981 37.3557 31.6317 34.686L37.969 41.0053C38.263 41.2973 38.647 41.4433 39.029 41.4433C39.413 41.4433 39.799 41.2973 40.091 41.0013C40.677 40.4153 40.675 39.4673 40.089 38.8813L33.826 32.6344C37.0089 29.1658 38.954 24.5438 38.954 19.476C38.954 8.736 30.218 0 19.478 0C8.738 0 0 8.736 0 19.476Z" fill="black"/>
</svg>
