<svg width="54" height="54" viewBox="0 0 54 54" fill="none" xmlns="http://www.w3.org/2000/svg">
<path d="M0.5 0.5H53.5V53.5H0.5V0.5Z" fill="#FAB0BC" stroke="black"/>
<path d="M28.6812 26.6288C29.3241 25.1053 29.967 23.6154 30.4813 22.2811L33.1815 22.8201C33.116 23.0429 32.8928 23.1698 32.4755 23.1698L30.9641 26.6288H42.245V28.5954H39.3217C38.5818 31.7358 37.3615 34.2438 35.4643 36.2105C37.8734 37.5423 40.0592 38.9077 41.6021 40.0814L39.9306 41.5738C38.4847 40.4 36.2989 39.0035 33.8559 37.6381C31.4129 39.4778 28.0699 40.7474 23.6036 41.5738C23.4119 40.939 22.9607 40.1461 22.5434 39.6694C26.5609 39.0658 29.5813 38.0837 31.8617 36.529C30.3843 35.7362 28.8413 34.9744 27.3954 34.3085L26.7841 35.5134L24.8239 34.7205C25.6924 33.1012 26.7525 30.8807 27.7812 28.5954H23.2179L23.8607 29.5153L22.6065 31.1969C22.0606 30.0854 20.6463 27.8337 19.5546 26.121V41.4468H17.5289V25.7401C16.3717 29.4841 14.7972 33.1323 13.1572 35.3553C12.9316 34.7828 12.3857 33.9588 12 33.4821C14.0888 30.7202 16.2431 25.5173 17.2717 20.9804H12.6113V18.9802H17.5289V12L20.1975 12.1892C20.1659 12.3809 19.9718 12.539 19.5546 12.6012V18.9802H23.6351V20.9804H19.5546V23.5818C20.2945 24.4705 21.9636 26.7869 23.0262 28.3104V26.6288H28.6812ZM24.9524 13.4612C26.2067 15.6818 27.49 18.6664 27.9097 20.475L25.9495 21.172C25.5638 19.3324 24.3435 16.3165 23.1208 14.0337L24.9524 13.4612ZM28.1984 32.6581C29.9015 33.3887 31.7331 34.2438 33.5332 35.1972C35.2678 33.5156 36.425 31.3262 37.1334 28.5978H30.0956L28.1984 32.6605V32.6581ZM32.1504 12.4455C32.9534 14.9511 33.5963 18.1251 33.6933 20.0606L31.5391 20.4103C31.476 18.4748 30.8962 15.2075 30.1562 12.6995L32.148 12.4455H32.1504ZM35.9738 22.662C37.2911 20.1229 38.9311 15.9357 39.7972 12.9845L42.4003 14.0002C42.3033 14.1918 42.0461 14.3164 41.6943 14.2852C40.7312 17.0136 39.0257 20.9493 37.6768 23.3926L35.9738 22.662Z" fill="black"/>
</svg>
